<svg width="32" height="32" viewBox="0 0 32 32" fill="none" xmlns="http://www.w3.org/2000/svg">
<path fill-rule="evenodd" clip-rule="evenodd" d="M10.4599 6.02781C8.01213 6.02781 6.02781 8.01213 6.02781 10.4599V21.5401C6.02781 23.9879 8.01213 25.9722 10.4599 25.9722H21.5401C23.9879 25.9722 25.9722 23.9879 25.9722 21.5401V10.4599C25.9722 8.01213 23.9879 6.02781 21.5401 6.02781H10.4599ZM3.81177 10.4599C3.81177 6.78824 6.78824 3.81177 10.4599 3.81177H21.5401C25.2118 3.81177 28.1883 6.78824 28.1883 10.4599V21.5401C28.1883 25.2118 25.2118 28.1883 21.5401 28.1883H10.4599C6.78824 28.1883 3.81177 25.2118 3.81177 21.5401V10.4599ZM20.9861 9.90589C20.9861 9.29395 21.4822 8.79787 22.0941 8.79787H22.1052C22.7172 8.79787 23.2132 9.29395 23.2132 9.90589C23.2132 10.5178 22.7172 11.0139 22.1052 11.0139H22.0941C21.4822 11.0139 20.9861 10.5178 20.9861 9.90589ZM16.5358 12.664C15.8441 12.5615 15.1378 12.6796 14.5172 13.0016C13.8966 13.3236 13.3933 13.8331 13.079 14.4577C12.7647 15.0822 12.6552 15.7899 12.7663 16.4802C12.8774 17.1705 13.2033 17.8082 13.6977 18.3026C14.1921 18.797 14.8298 19.1229 15.5201 19.234C16.2104 19.3451 16.9181 19.2356 17.5426 18.9213C18.1672 18.607 18.6767 18.1037 18.9987 17.4831C19.3207 16.8625 19.4388 16.1562 19.3363 15.4646C19.2317 14.7591 18.9029 14.106 18.3986 13.6017C17.8943 13.0974 17.2412 12.7686 16.5358 12.664ZM13.4966 11.0346C14.5309 10.4979 15.7081 10.301 16.8608 10.4719C18.0366 10.6463 19.1251 11.1942 19.9656 12.0347C20.8061 12.8752 21.354 13.9637 21.5284 15.1395C21.6993 16.2922 21.5024 17.4694 20.9657 18.5037C20.429 19.5381 19.5798 20.3769 18.5389 20.9008C17.4981 21.4247 16.3185 21.607 15.168 21.4219C14.0175 21.2368 12.9547 20.6936 12.1307 19.8696C11.3067 19.0456 10.7635 17.9828 10.5784 16.8323C10.3933 15.6818 10.5756 14.5022 11.0995 13.4614C11.6234 12.4205 12.4622 11.5713 13.4966 11.0346Z" fill="#666666"/>
</svg>
