<svg width="32" height="32" viewBox="0 0 32 32" fill="none" xmlns="http://www.w3.org/2000/svg">
<path d="M15.9999 2.25885C8.38191 2.25885 2.21167 8.43805 2.21167 16.0594C2.21167 22.1581 6.162 27.3298 11.6394 29.1527C12.3288 29.2826 12.5816 28.856 12.5816 28.4891C12.5816 28.1613 12.5701 27.293 12.5643 26.143C8.72891 26.9756 7.92 24.2914 7.92 24.2914C7.29264 22.6986 6.38606 22.2731 6.38606 22.2731C5.13708 21.4175 6.48258 21.4347 6.48258 21.4347C7.86715 21.5313 8.59448 22.8562 8.59448 22.8562C9.82393 24.9665 11.8221 24.357 12.6103 24.0039C12.7344 23.1115 13.0894 22.5031 13.4836 22.1581C10.4214 21.8131 7.20301 20.6262 7.20301 15.3383C7.20301 13.8318 7.73731 12.6012 8.62206 11.6352C8.46694 11.2867 8.00158 9.88365 8.7427 7.98263C8.7427 7.98263 9.89747 7.61231 12.5345 9.39719C13.6375 9.09012 14.8095 8.93832 15.9815 8.93142C17.1535 8.93832 18.3255 9.09012 19.4286 9.39719C22.0484 7.61231 23.2031 7.98263 23.2031 7.98263C23.9442 9.88365 23.4789 11.2867 23.341 11.6352C24.22 12.6012 24.7543 13.8318 24.7543 15.3383C24.7543 20.64 21.5313 21.8073 18.4634 22.1466C18.946 22.5606 19.3941 23.407 19.3941 24.6997C19.3941 26.5467 19.3769 28.0302 19.3769 28.4787C19.3769 28.841 19.6182 29.2723 20.3248 29.1343C25.8413 27.3241 29.7882 22.1489 29.7882 16.0594C29.7882 8.43805 23.6145 2.25885 15.9999 2.25885Z" fill="#666666"/>
</svg>
