<svg width="32" height="32" viewBox="0 0 32 32" fill="none" xmlns="http://www.w3.org/2000/svg">
<path d="M26.1956 3.85883H5.89044C4.78139 3.85883 3.81177 4.65734 3.81177 5.75372V26.1032C3.81177 27.206 4.78139 28.1883 5.89044 28.1883H26.1892C27.3046 28.1883 28.1412 27.1996 28.1412 26.1032V5.75372C28.1475 4.65734 27.3046 3.85883 26.1956 3.85883ZM11.3533 24.1386H7.86772V13.3016H11.3533V24.1386ZM9.73093 11.6539H9.70558C8.59019 11.6539 7.86772 10.8237 7.86772 9.78433C7.86772 8.72598 8.6092 7.91479 9.74994 7.91479C10.8907 7.91479 11.5878 8.71964 11.6131 9.78433C11.6131 10.8237 10.8907 11.6539 9.73093 11.6539ZM24.0915 24.1386H20.606V18.2131C20.606 16.7935 20.099 15.8239 18.8378 15.8239C17.8745 15.8239 17.3042 16.4767 17.0507 17.1104C16.9556 17.3386 16.9302 17.6491 16.9302 17.966V24.1386H13.4447V13.3016H16.9302V14.8099C17.4372 14.0875 18.2294 13.0481 20.0736 13.0481C22.3614 13.0481 24.0915 14.5564 24.0915 17.8075V24.1386Z" fill="#666666"/>
</svg>
